<svg xmlns="http://www.w3.org/2000/svg" viewBox="0 0 256 80" width="256" height="80">
	<style>
		tspan { white-space:pre }
		.shp0 { fill: #020202 } 
	</style>
	<path id="Path 0" class="shp0" d="M16.49 17L1.5 32C30.16 60.67 31.81 62.01 35 61.99C37.45 61.97 39.33 61.14 41.27 59.23C43.27 57.26 44.03 55.53 44.01 53C43.98 50.32 43.09 48.61 40.24 45.73L36.5 41.97L54.5 42.03C60.51 35.97 61.98 33.52 62 32C62.02 30.41 60.66 28.14 58.27 25.76L54.5 22.03L36.5 22.03C43.09 15.39 43.98 13.68 44.01 11C44.03 8.47 43.27 6.74 41.27 4.77C39.32 2.85 37.45 2.03 34.99 2.02C31.78 2 30.15 3.32 16.49 17ZM89.49 5.79L85.58 9.58L86.03 27.5C79.22 20.74 77.75 20.03 74.61 20.01C71.58 20 70.19 20.61 68.37 22.75C66.91 24.47 66.03 26.81 66.01 29C65.99 32.19 67.33 33.84 81 47.5L96 62.5C124.67 33.84 126.01 32.19 125.99 29C125.97 26.55 125.14 24.67 123.23 22.73C121.43 20.9 119.47 19.96 117.49 19.98C115.46 19.99 113.1 21.22 110.23 23.75L105.97 27.5L106.03 9.5C99.91 3.43 97.54 2.02 95.95 2.01C94.34 2.01 91.96 3.4 89.49 5.79ZM144.5 16.76C130.41 30.65 129.54 31.73 129.78 35.01C129.94 37.22 131.03 39.51 132.77 41.27C134.74 43.27 136.47 44.03 139 44.01C141.68 43.98 143.39 43.09 146.27 40.24L150.03 36.5L149.97 54.5C156.03 60.51 158.48 61.98 160 62C161.59 62.02 163.86 60.66 166.24 58.27L169.97 54.5L169.97 36.5C176.61 43.09 178.32 43.98 181 44.01C183.53 44.03 185.26 43.27 187.23 41.27C189.14 39.33 189.97 37.45 189.99 35C190.01 31.81 188.68 30.18 175.25 16.75C167.14 8.64 160.27 2.01 159.99 2C159.71 2 152.74 8.64 144.5 16.76ZM214.48 4.8C212.27 6.96 211.65 8.41 211.81 11.05C211.97 13.52 213.09 15.57 215.76 18.27L219.5 22.03L200.89 22C195.51 27.88 194.02 30.58 194 32C193.98 33.59 195.34 35.86 197.73 38.24L201.5 41.97L219.5 41.97C212.91 48.61 212.02 50.32 211.99 53C211.97 55.53 212.73 57.26 214.73 59.23C216.67 61.14 218.55 61.97 221 61.99C224.19 62.01 225.84 60.67 239.5 47L254.5 32C225.76 3.26 224.2 1.99 220.93 2C218.38 2 216.55 2.8 214.48 4.8Z" />
</svg>