<svg xmlns="http://www.w3.org/2000/svg" viewBox="0 0 94 96" width="94" height="96">
	<style>
		tspan { white-space:pre }
		.shp0 { fill: #323638 } 
	</style>
	<g id="Layer">
		<path id="Layer" fill-rule="evenodd" class="shp0" d="M92.28 85.53L84 93.71C83.8 93.9 83.55 94 83.29 94C83.04 94 82.78 93.9 82.59 93.71L65.27 76.56C64.03 75.31 64.05 73.3 65.29 72.07L70.7 66.74C71.9 65.55 73.99 65.56 75.18 66.77L92.29 84.12C92.68 84.51 92.67 85.14 92.28 85.53ZM90.16 84.81L73.76 68.17C73.53 67.95 73.24 67.82 72.92 67.82C72.61 67.82 72.32 67.94 72.1 68.16L66.7 73.49C66.24 73.95 66.23 74.69 66.69 75.15L83.29 91.59L90.16 84.81Z" />
		<path id="Layer" fill-rule="evenodd" class="shp0" d="M39.31 77.77C18.42 77.77 1.42 60.77 1.42 39.88C1.42 18.99 18.42 2 39.3 2C60.19 2 77.19 18.99 77.19 39.88C77.19 60.77 60.19 77.77 39.31 77.77ZM75.19 39.88C75.19 20.1 59.09 4 39.3 4C19.52 4 3.42 20.1 3.42 39.88C3.42 59.67 19.52 75.77 39.3 75.77C59.09 75.77 75.19 59.67 75.19 39.88Z" />
		<path id="Layer" fill-rule="evenodd" class="shp0" d="M57.7 25.39L57.7 54.31C57.7 58.64 54.17 62.17 49.83 62.17C45.5 62.17 41.97 58.64 41.97 54.31C41.97 49.97 45.5 46.44 49.83 46.44C52.17 46.44 54.26 47.47 55.7 49.08L55.7 25.39C55.7 25.01 55.46 24.67 55.09 24.55L34.1 17.21C33.85 17.13 33.57 17.17 33.34 17.34C33.11 17.51 32.98 17.77 32.98 18.05L32.98 48.81C32.98 53.15 29.46 56.68 25.12 56.68C20.78 56.68 17.25 53.15 17.25 48.81C17.25 44.47 20.78 40.95 25.12 40.95C27.45 40.95 29.54 41.97 30.98 43.59L30.98 18.05C30.98 17.12 31.41 16.27 32.17 15.72C32.92 15.18 33.85 15.03 34.74 15.31L55.73 22.66C56.9 23.03 57.7 24.13 57.7 25.39ZM30.98 48.81C30.98 45.58 28.35 42.95 25.12 42.95C21.88 42.95 19.25 45.58 19.25 48.81C19.25 52.05 21.88 54.68 25.12 54.68C28.35 54.68 30.98 52.05 30.98 48.81ZM55.7 54.31C55.7 51.07 53.07 48.44 49.83 48.44C46.6 48.44 43.97 51.07 43.97 54.31C43.97 57.54 46.6 60.17 49.83 60.17C53.07 60.17 55.7 57.54 55.7 54.31Z" />
	</g>
</svg>